<svg width="21" height="21" viewBox="0 0 21 21" fill="none" xmlns="http://www.w3.org/2000/svg">
<path d="M15.5001 6.46667C15.4501 6.45834 15.3918 6.45834 15.3418 6.46667C14.1918 6.425 13.2751 5.48333 13.2751 4.31667C13.2751 3.125 14.2335 2.16667 15.4251 2.16667C16.6168 2.16667 17.5751 3.13333 17.5751 4.31667C17.5668 5.48333 16.6501 6.425 15.5001 6.46667Z" stroke="#705DF2" stroke-width="1.25" stroke-linecap="round" stroke-linejoin="round"/>
<path d="M14.6417 12.5333C15.7834 12.725 17.0417 12.525 17.925 11.9333C19.1 11.15 19.1 9.86667 17.925 9.08334C17.0334 8.49167 15.7584 8.29167 14.6167 8.49167" stroke="#705DF2" stroke-width="1.25" stroke-linecap="round" stroke-linejoin="round"/>
<path d="M5.4749 6.46667C5.5249 6.45834 5.58324 6.45834 5.63324 6.46667C6.78324 6.425 7.6999 5.48333 7.6999 4.31667C7.6999 3.125 6.74157 2.16667 5.5499 2.16667C4.35824 2.16667 3.3999 3.13333 3.3999 4.31667C3.40824 5.48333 4.3249 6.425 5.4749 6.46667Z" stroke="#705DF2" stroke-width="1.25" stroke-linecap="round" stroke-linejoin="round"/>
<path d="M6.33328 12.5333C5.19162 12.725 3.93328 12.525 3.04995 11.9333C1.87495 11.15 1.87495 9.86667 3.04995 9.08334C3.94162 8.49167 5.21662 8.29167 6.35828 8.49167" stroke="#705DF2" stroke-width="1.25" stroke-linecap="round" stroke-linejoin="round"/>
<path d="M10.5001 12.6917C10.4501 12.6833 10.3918 12.6833 10.3418 12.6917C9.19181 12.65 8.27515 11.7083 8.27515 10.5417C8.27515 9.35 9.23348 8.39167 10.4251 8.39167C11.6168 8.39167 12.5751 9.35833 12.5751 10.5417C12.5668 11.7083 11.6501 12.6583 10.5001 12.6917Z" stroke="#705DF2" stroke-width="1.25" stroke-linecap="round" stroke-linejoin="round"/>
<path d="M8.07485 15.3167C6.89985 16.1 6.89985 17.3833 8.07485 18.1667C9.40819 19.0583 11.5915 19.0583 12.9249 18.1667C14.0999 17.3833 14.0999 16.1 12.9249 15.3167C11.5999 14.4333 9.40819 14.4333 8.07485 15.3167Z" stroke="#705DF2" stroke-width="1.25" stroke-linecap="round" stroke-linejoin="round"/>
</svg>
