<svg width="76" height="76" viewBox="0 0 76 76" fill="none" xmlns="http://www.w3.org/2000/svg">
<g filter="url(#filter0_dii_297_8815)">
<path fill-rule="evenodd" clip-rule="evenodd" d="M65.8026 34.1548C65.8182 33.7718 65.8261 33.3869 65.8261 33C65.8261 17.6321 53.368 5.17395 38 5.17395C22.6321 5.17395 10.174 17.6321 10.174 33C10.174 48.368 22.6321 60.8261 38 60.8261C44.2643 60.8261 50.045 58.7562 54.6957 55.263C54.6968 58.3356 57.188 60.8261 60.2609 60.8261C63.3345 60.8261 65.8261 58.3345 65.8261 55.2609V34.6696C65.8261 34.496 65.8181 34.3243 65.8026 34.1548ZM38 49.7009C28.7764 49.7009 21.2992 42.2237 21.2992 33C21.2992 23.7764 28.7764 16.2992 38 16.2992C47.2237 16.2992 54.7009 23.7764 54.7009 33C54.7009 42.2237 47.2237 49.7009 38 49.7009Z" fill="white"/>
</g>
<defs>
<filter id="filter0_dii_297_8815" x="0.618814" y="0.830707" width="74.7625" height="74.7625" filterUnits="userSpaceOnUse" color-interpolation-filters="sRGB">
<feFlood flood-opacity="0" result="BackgroundImageFix"/>
<feColorMatrix in="SourceAlpha" type="matrix" values="0 0 0 0 0 0 0 0 0 0 0 0 0 0 0 0 0 0 127 0" result="hardAlpha"/>
<feOffset dy="5.21189"/>
<feGaussianBlur stdDeviation="4.77757"/>
<feColorMatrix type="matrix" values="0 0 0 0 0.8375 0 0 0 0 0.201 0 0 0 0 0 0 0 0 0.35 0"/>
<feBlend mode="normal" in2="BackgroundImageFix" result="effect1_dropShadow_297_8815"/>
<feBlend mode="normal" in="SourceGraphic" in2="effect1_dropShadow_297_8815" result="shape"/>
<feColorMatrix in="SourceAlpha" type="matrix" values="0 0 0 0 0 0 0 0 0 0 0 0 0 0 0 0 0 0 127 0" result="hardAlpha"/>
<feOffset dy="-3.4746"/>
<feGaussianBlur stdDeviation="2.17162"/>
<feComposite in2="hardAlpha" operator="arithmetic" k2="-1" k3="1"/>
<feColorMatrix type="matrix" values="0 0 0 0 0.8125 0 0 0 0 0.423448 0 0 0 0 0.0643229 0 0 0 0.45 0"/>
<feBlend mode="normal" in2="shape" result="effect2_innerShadow_297_8815"/>
<feColorMatrix in="SourceAlpha" type="matrix" values="0 0 0 0 0 0 0 0 0 0 0 0 0 0 0 0 0 0 127 0" result="hardAlpha"/>
<feOffset dy="-1.30297"/>
<feGaussianBlur stdDeviation="0.868649"/>
<feComposite in2="hardAlpha" operator="arithmetic" k2="-1" k3="1"/>
<feColorMatrix type="matrix" values="0 0 0 0 1 0 0 0 0 1 0 0 0 0 1 0 0 0 0.25 0"/>
<feBlend mode="normal" in2="effect2_innerShadow_297_8815" result="effect3_innerShadow_297_8815"/>
</filter>
</defs>
</svg>
