<svg width="98" height="98" viewBox="0 0 98 98" fill="none" xmlns="http://www.w3.org/2000/svg">
<g filter="url(#filter0_d_297_8822)">
<mask id="mask0_297_8822" style="mask-type:alpha" maskUnits="userSpaceOnUse" x="24" y="20" width="50" height="56">
<path d="M68.5939 20.7712H29.4055C26.9082 20.7712 24.8838 22.7957 24.8838 25.293V70.5104C24.8838 73.0077 26.9082 75.0321 29.4055 75.0321H68.5939C71.0912 75.0321 73.1157 73.0077 73.1157 70.5104V25.293C73.1157 22.7957 71.0912 20.7712 68.5939 20.7712Z" fill="white"/>
</mask>
<g mask="url(#mask0_297_8822)">
<g filter="url(#filter1_ii_297_8822)">
<path d="M68.5939 20.7712H29.4055C26.9082 20.7712 24.8838 22.7957 24.8838 25.293V70.5104C24.8838 73.0077 26.9082 75.0321 29.4055 75.0321H68.5939C71.0912 75.0321 73.1157 73.0077 73.1157 70.5104V25.293C73.1157 22.7957 71.0912 20.7712 68.5939 20.7712Z" fill="url(#paint0_linear_297_8822)"/>
<path d="M68.5939 20.7712H29.4055C26.9082 20.7712 24.8838 22.7957 24.8838 25.293V70.5104C24.8838 73.0077 26.9082 75.0321 29.4055 75.0321H68.5939C71.0912 75.0321 73.1157 73.0077 73.1157 70.5104V25.293C73.1157 22.7957 71.0912 20.7712 68.5939 20.7712Z" fill="url(#paint1_radial_297_8822)" fill-opacity="0.8"/>
<path d="M68.5939 20.7712H29.4055C26.9082 20.7712 24.8838 22.7957 24.8838 25.293V70.5104C24.8838 73.0077 26.9082 75.0321 29.4055 75.0321H68.5939C71.0912 75.0321 73.1157 73.0077 73.1157 70.5104V25.293C73.1157 22.7957 71.0912 20.7712 68.5939 20.7712Z" fill="url(#paint2_radial_297_8822)" fill-opacity="0.8"/>
<path d="M68.5939 20.7712H29.4055C26.9082 20.7712 24.8838 22.7957 24.8838 25.293V70.5104C24.8838 73.0077 26.9082 75.0321 29.4055 75.0321H68.5939C71.0912 75.0321 73.1157 73.0077 73.1157 70.5104V25.293C73.1157 22.7957 71.0912 20.7712 68.5939 20.7712Z" fill="url(#paint3_radial_297_8822)" fill-opacity="0.8"/>
</g>
</g>
<g filter="url(#filter2_ddii_297_8822)">
<path fill-rule="evenodd" clip-rule="evenodd" d="M53.5207 13.2347C55.3986 13.2347 57.0092 14.3795 57.6925 16.0093C57.7521 16.1515 57.8883 16.2493 58.0424 16.2492C60.5397 16.2492 62.5641 18.2737 62.5641 20.771C62.5641 23.2683 60.5397 25.2927 58.0424 25.2927H39.9555C37.4582 25.2927 35.4337 23.2683 35.4337 20.771C35.4337 18.2737 37.4582 16.2492 39.9555 16.2492C40.1096 16.2493 40.2457 16.1515 40.3054 16.0093C40.9887 14.3795 42.5993 13.2347 44.4772 13.2347H53.5207Z" fill="#FF5C7A"/>
</g>
<g filter="url(#filter3_dii_297_8822)">
<path fill-rule="evenodd" clip-rule="evenodd" d="M39.4072 46.577C38.23 45.3997 38.23 43.4911 39.4072 42.3138C40.5845 41.1366 42.4931 41.1366 43.6704 42.3138L47.6384 46.2818C47.8014 46.4448 48.0656 46.4448 48.2286 46.2818L54.3282 40.1823C55.5054 39.005 57.4141 39.005 58.5913 40.1823C59.7686 41.3595 59.7686 43.2682 58.5913 44.4454L50.0651 52.9717C48.9413 54.0954 47.1512 54.1465 45.9669 53.1249L45.8019 52.9717L39.4072 46.577Z" fill="white"/>
</g>
</g>
<defs>
<filter id="filter0_d_297_8822" x="0.860832" y="0.921708" width="96.2782" height="96.2782" filterUnits="userSpaceOnUse" color-interpolation-filters="sRGB">
<feFlood flood-opacity="0" result="BackgroundImageFix"/>
<feColorMatrix in="SourceAlpha" type="matrix" values="0 0 0 0 0 0 0 0 0 0 0 0 0 0 0 0 0 0 127 0" result="hardAlpha"/>
<feMorphology radius="0.834783" operator="dilate" in="SourceAlpha" result="effect1_dropShadow_297_8822"/>
<feOffset dy="4.17391"/>
<feGaussianBlur stdDeviation="5.56522"/>
<feColorMatrix type="matrix" values="0 0 0 0 0.206916 0 0 0 0 0 0 0 0 0 0.795833 0 0 0 0.6 0"/>
<feBlend mode="normal" in2="BackgroundImageFix" result="effect1_dropShadow_297_8822"/>
<feBlend mode="normal" in="SourceGraphic" in2="effect1_dropShadow_297_8822" result="shape"/>
</filter>
<filter id="filter1_ii_297_8822" x="20.0575" y="17.2985" width="53.0583" height="57.7336" filterUnits="userSpaceOnUse" color-interpolation-filters="sRGB">
<feFlood flood-opacity="0" result="BackgroundImageFix"/>
<feBlend mode="normal" in="SourceGraphic" in2="BackgroundImageFix" result="shape"/>
<feColorMatrix in="SourceAlpha" type="matrix" values="0 0 0 0 0 0 0 0 0 0 0 0 0 0 0 0 0 0 127 0" result="hardAlpha"/>
<feOffset dx="-4.82633"/>
<feGaussianBlur stdDeviation="4.82633"/>
<feComposite in2="hardAlpha" operator="arithmetic" k2="-1" k3="1"/>
<feColorMatrix type="matrix" values="0 0 0 0 0.80575 0 0 0 0 0.7375 0 0 0 0 1 0 0 0 0.3 0"/>
<feBlend mode="normal" in2="shape" result="effect1_innerShadow_297_8822"/>
<feColorMatrix in="SourceAlpha" type="matrix" values="0 0 0 0 0 0 0 0 0 0 0 0 0 0 0 0 0 0 127 0" result="hardAlpha"/>
<feOffset dy="-3.4727"/>
<feGaussianBlur stdDeviation="2.31513"/>
<feComposite in2="hardAlpha" operator="arithmetic" k2="-1" k3="1"/>
<feColorMatrix type="matrix" values="0 0 0 0 0.1755 0 0 0 0 0 0 0 0 0 0.675 0 0 0 0.65 0"/>
<feBlend mode="normal" in2="effect1_innerShadow_297_8822" result="effect2_innerShadow_297_8822"/>
</filter>
<filter id="filter2_ddii_297_8822" x="31.0928" y="10.6302" width="35.8122" height="20.7397" filterUnits="userSpaceOnUse" color-interpolation-filters="sRGB">
<feFlood flood-opacity="0" result="BackgroundImageFix"/>
<feColorMatrix in="SourceAlpha" type="matrix" values="0 0 0 0 0 0 0 0 0 0 0 0 0 0 0 0 0 0 127 0" result="hardAlpha"/>
<feOffset dy="1.73635"/>
<feGaussianBlur stdDeviation="2.17043"/>
<feColorMatrix type="matrix" values="0 0 0 0 0.295167 0 0 0 0 0 0 0 0 0 0.670833 0 0 0 0.75 0"/>
<feBlend mode="normal" in2="BackgroundImageFix" result="effect1_dropShadow_297_8822"/>
<feColorMatrix in="SourceAlpha" type="matrix" values="0 0 0 0 0 0 0 0 0 0 0 0 0 0 0 0 0 0 127 0" result="hardAlpha"/>
<feOffset dy="0.434087"/>
<feGaussianBlur stdDeviation="0.289391"/>
<feColorMatrix type="matrix" values="0 0 0 0 0.237156 0 0 0 0 0.00444442 0 0 0 0 0.533333 0 0 0 0.25 0"/>
<feBlend mode="normal" in2="effect1_dropShadow_297_8822" result="effect2_dropShadow_297_8822"/>
<feBlend mode="normal" in="SourceGraphic" in2="effect2_dropShadow_297_8822" result="shape"/>
<feColorMatrix in="SourceAlpha" type="matrix" values="0 0 0 0 0 0 0 0 0 0 0 0 0 0 0 0 0 0 127 0" result="hardAlpha"/>
<feOffset dy="-1.73635"/>
<feGaussianBlur stdDeviation="1.73635"/>
<feComposite in2="hardAlpha" operator="arithmetic" k2="-1" k3="1"/>
<feColorMatrix type="matrix" values="0 0 0 0 0.525 0 0 0 0 0 0 0 0 0 0.0629999 0 0 0 0.65 0"/>
<feBlend mode="normal" in2="shape" result="effect3_innerShadow_297_8822"/>
<feColorMatrix in="SourceAlpha" type="matrix" values="0 0 0 0 0 0 0 0 0 0 0 0 0 0 0 0 0 0 127 0" result="hardAlpha"/>
<feOffset dy="-0.868174"/>
<feGaussianBlur stdDeviation="0.868174"/>
<feComposite in2="hardAlpha" operator="arithmetic" k2="-1" k3="1"/>
<feColorMatrix type="matrix" values="0 0 0 0 0.553333 0 0 0 0 0.441667 0 0 0 0 1 0 0 0 0.65 0"/>
<feBlend mode="normal" in2="effect3_innerShadow_297_8822" result="effect4_innerShadow_297_8822"/>
</filter>
<filter id="filter3_dii_297_8822" x="29.8426" y="36.4054" width="38.3134" height="31.9188" filterUnits="userSpaceOnUse" color-interpolation-filters="sRGB">
<feFlood flood-opacity="0" result="BackgroundImageFix"/>
<feColorMatrix in="SourceAlpha" type="matrix" values="0 0 0 0 0 0 0 0 0 0 0 0 0 0 0 0 0 0 127 0" result="hardAlpha"/>
<feOffset dy="5.78783"/>
<feGaussianBlur stdDeviation="4.34087"/>
<feColorMatrix type="matrix" values="0 0 0 0 0.227561 0 0 0 0 0.00928819 0 0 0 0 0.445833 0 0 0 0.7 0"/>
<feBlend mode="normal" in2="BackgroundImageFix" result="effect1_dropShadow_297_8822"/>
<feBlend mode="normal" in="SourceGraphic" in2="effect1_dropShadow_297_8822" result="shape"/>
<feColorMatrix in="SourceAlpha" type="matrix" values="0 0 0 0 0 0 0 0 0 0 0 0 0 0 0 0 0 0 127 0" result="hardAlpha"/>
<feOffset dy="-2.31513"/>
<feGaussianBlur stdDeviation="1.44696"/>
<feComposite in2="hardAlpha" operator="arithmetic" k2="-1" k3="1"/>
<feColorMatrix type="matrix" values="0 0 0 0 0.32 0 0 0 0 0 0 0 0 0 1 0 0 0 0.5 0"/>
<feBlend mode="normal" in2="shape" result="effect2_innerShadow_297_8822"/>
<feColorMatrix in="SourceAlpha" type="matrix" values="0 0 0 0 0 0 0 0 0 0 0 0 0 0 0 0 0 0 127 0" result="hardAlpha"/>
<feOffset dy="-1.16877"/>
<feGaussianBlur stdDeviation="0.779178"/>
<feComposite in2="hardAlpha" operator="arithmetic" k2="-1" k3="1"/>
<feColorMatrix type="matrix" values="0 0 0 0 0.975833 0 0 0 0 0.879167 0 0 0 0 1 0 0 0 0.75 0"/>
<feBlend mode="normal" in2="effect2_innerShadow_297_8822" result="effect3_innerShadow_297_8822"/>
</filter>
<linearGradient id="paint0_linear_297_8822" x1="73.1157" y1="15.0699" x2="21.3788" y2="73.807" gradientUnits="userSpaceOnUse">
<stop stop-color="#7041EE"/>
<stop offset="0.527788" stop-color="#8D41EE"/>
<stop offset="1" stop-color="#D641EE"/>
</linearGradient>
<radialGradient id="paint1_radial_297_8822" cx="0" cy="0" r="1" gradientUnits="userSpaceOnUse" gradientTransform="translate(37.9636 8.9754) rotate(95.4785) scale(66.3598 98.5634)">
<stop stop-color="#52B6FF"/>
<stop offset="1" stop-color="#8F41EE" stop-opacity="0"/>
</radialGradient>
<radialGradient id="paint2_radial_297_8822" cx="0" cy="0" r="1" gradientUnits="userSpaceOnUse" gradientTransform="translate(37.7593 23.9168) rotate(64.8899) scale(26.4882 70.8129)">
<stop stop-color="#9DD6FF"/>
<stop offset="1" stop-color="#8F41EE" stop-opacity="0"/>
</radialGradient>
<radialGradient id="paint3_radial_297_8822" cx="0" cy="0" r="1" gradientUnits="userSpaceOnUse" gradientTransform="translate(96.0054 62.2533) rotate(141.077) scale(42.5563 60.3939)">
<stop stop-color="#5263FF"/>
<stop offset="1" stop-color="#8F41EE" stop-opacity="0"/>
</radialGradient>
</defs>
</svg>
